<svg xmlns="http://www.w3.org/2000/svg" width="296.728" height="246.869" viewBox="0 0 296.728 246.869">
  <g id="Layer_x0020_1" transform="translate(-157.97)">
    <g id="_1802022779184" transform="translate(-0.01)">
      <path id="Path_948" data-name="Path 948" d="M2230.266,0A50.266,50.266,0,1,1,2180,50.266,50.267,50.267,0,0,1,2230.266,0Z" transform="translate(-1923.709)" fill="#eaeff7" fill-rule="evenodd"/>
      <g id="Group_3597" data-name="Group 3597" transform="translate(259.442 3.151)">
        <path id="Path_949" data-name="Path 949" d="M2253.915,26.8A47.115,47.115,0,1,1,2206.8,73.915,47.116,47.116,0,0,1,2253.915,26.8Z" transform="translate(-2206.8 -26.8)" fill="#dae1eb" fill-rule="evenodd"/>
        <path id="Path_950" data-name="Path 950" d="M2407.865,162.21a17.091,17.091,0,0,1,12.105,5.02l.018.019a17.1,17.1,0,0,1-.006,24.2l-.018.019a17.379,17.379,0,0,1-1.955,1.679l.536.189c8.939,3.264,15.927,10.73,15.927,22.4v5.922a2.938,2.938,0,0,1-5.876,0v-5.922c0-8.793-5.286-14.426-12.048-16.894a26.09,26.09,0,0,0-17.365,0c-6.762,2.466-12.047,8.1-12.047,16.894v5.922a2.938,2.938,0,1,1-5.876,0v-5.922c0-11.672,6.987-19.141,15.927-22.4l.536-.189a17.379,17.379,0,0,1-1.962-1.685l-.018-.019a17.1,17.1,0,0,1,.006-24.2l.018-.019A17.088,17.088,0,0,1,2407.865,162.21Zm7.964,9.163a11.291,11.291,0,0,0-15.928,0l-.01.011a11.29,11.29,0,0,0,0,15.928l.01.011a11.291,11.291,0,0,0,15.928,0l.012-.011a11.291,11.291,0,0,0,0-15.928Z" transform="translate(-2360.75 -146.291)" fill="#bfc8d6"/>
        <path id="Path_951" data-name="Path 951" d="M2817.878,562.259l.914-.245-2.2-8.226c-1.645-6.137.682-10.99,4.545-13.89a14.514,14.514,0,0,1,10.375-2.78c4.8.58,9.237,3.62,10.882,9.757l2.2,8.226.914-.245a2.9,2.9,0,0,1,3.542,2.044l5.822,21.729a2.9,2.9,0,0,1-2.044,3.542l-27.627,7.4a2.9,2.9,0,0,1-3.542-2.044l-5.823-21.729a2.9,2.9,0,0,1,2.046-3.542Zm19.057,8.988,1.463,5.462a1.786,1.786,0,0,1-1.258,2.181h0a1.786,1.786,0,0,1-2.18-1.259l-1.464-5.462a3.44,3.44,0,1,1,3.44-.922Zm-13.451-10.49,16.416-4.4-2.2-8.226a7.871,7.871,0,0,0-6.766-6.2,9.843,9.843,0,0,0-6.893,1.846,7.87,7.87,0,0,0-2.758,8.755l2.2,8.226Z" transform="translate(-2744.146 -477.033)" fill="#08706d" fill-rule="evenodd"/>
        <path id="Path_952" data-name="Path 952" d="M2883.8,525.095c2.642-.918,3.279,3.941,1.615,4.608,1.723-.462,5.6,1.291,8.288,1.8a46.825,46.825,0,0,0,3.013-7.947c-2.671-2.582-10.26-1.87-12.916,1.541Z" transform="translate(-2804.209 -463.779)" fill="#dae1eb" fill-rule="evenodd"/>
      </g>
      <path id="Path_953" data-name="Path 953" d="M2230.266,0A50.266,50.266,0,1,1,2180,50.266,50.267,50.267,0,0,1,2230.266,0Z" transform="translate(-1923.709)" fill="#eaeff7" fill-rule="evenodd"/>
      <path id="Path_954" data-name="Path 954" d="M2253.915,26.8A47.115,47.115,0,1,1,2206.8,73.915,47.116,47.116,0,0,1,2253.915,26.8Z" transform="translate(-1947.358 -23.649)" fill="#dae1eb" fill-rule="evenodd"/>
      <path id="Path_955" data-name="Path 955" d="M2407.865,162.21a17.091,17.091,0,0,1,12.105,5.02l.018.019a17.1,17.1,0,0,1-.006,24.2l-.018.019a17.379,17.379,0,0,1-1.955,1.679l.536.189c8.939,3.264,15.927,10.73,15.927,22.4v5.922a2.938,2.938,0,0,1-5.876,0v-5.922c0-8.793-5.286-14.426-12.048-16.894a26.09,26.09,0,0,0-17.365,0c-6.762,2.466-12.047,8.1-12.047,16.894v5.922a2.938,2.938,0,1,1-5.876,0v-5.922c0-11.672,6.987-19.141,15.927-22.4l.536-.189a17.379,17.379,0,0,1-1.962-1.685l-.018-.019a17.1,17.1,0,0,1,.006-24.2l.018-.019A17.088,17.088,0,0,1,2407.865,162.21Zm7.964,9.163a11.291,11.291,0,0,0-15.928,0l-.01.011a11.29,11.29,0,0,0,0,15.928l.01.011a11.291,11.291,0,0,0,15.928,0l.012-.011a11.291,11.291,0,0,0,0-15.928Z" transform="translate(-2101.308 -143.14)" fill="#bfc8d6"/>
      <path id="Path_956" data-name="Path 956" d="M2817.878,562.259l.914-.245-2.2-8.226c-1.645-6.137.682-10.99,4.545-13.89a14.514,14.514,0,0,1,10.375-2.78c4.8.58,9.237,3.62,10.882,9.757l2.2,8.226.914-.245a2.9,2.9,0,0,1,3.542,2.044l5.822,21.729a2.9,2.9,0,0,1-2.044,3.542l-27.627,7.4a2.9,2.9,0,0,1-3.542-2.044l-5.823-21.729a2.9,2.9,0,0,1,2.046-3.542Zm19.057,8.988,1.463,5.462a1.786,1.786,0,0,1-1.258,2.181h0a1.786,1.786,0,0,1-2.18-1.259l-1.464-5.462a3.44,3.44,0,1,1,3.44-.922Zm-13.451-10.49,16.416-4.4-2.2-8.226a7.871,7.871,0,0,0-6.766-6.2,9.843,9.843,0,0,0-6.893,1.846,7.87,7.87,0,0,0-2.758,8.755l2.2,8.226Z" transform="translate(-2484.705 -473.882)" fill="#08706d" fill-rule="evenodd"/>
      <g id="Group_3598" data-name="Group 3598" transform="translate(345.482 60.79)">
        <path id="Path_957" data-name="Path 957" d="M2939.035,519.444c2.443.347,1.632,5.148-.375,4.835,1.723-.462.769,2.376,3.454,2.883a46.871,46.871,0,0,0,3.013-7.947c-2.671-2.582-3.436-3.182-6.091.229Z" transform="translate(-2938.66 -517.079)" fill="#dae1eb" fill-rule="evenodd"/>
        <path id="Path_958" data-name="Path 958" d="M2960.526,537.2a50.047,50.047,0,0,1-5.069,11.379l-2.427-2.088a46.905,46.905,0,0,0,4.777-11.225l2.719,1.935Z" transform="translate(-2951.34 -533.131)" fill="#eaeff7" fill-rule="evenodd"/>
      </g>
      <path id="Path_963" data-name="Path 963" d="M2508.581,1392.343H2478.52l1.331-14.013h27.4Z" transform="translate(-2187.134 -1216.288)" fill="#868b8d"/>
      <path id="Path_964" data-name="Path 964" d="M2011.1,1265.25V1275.9a3.991,3.991,0,0,0,3.99,3.99h131.84a3.991,3.991,0,0,0,3.99-3.99V1265.25Z" transform="translate(-1774.666 -1116.502)" fill="#a4a9ab"/>
      <path id="Path_965" data-name="Path 965" d="M2113.43,1328.719h19.754v-1.328H2113.43Z" transform="translate(-1864.965 -1171.337)" fill="#333"/>
      <path id="Path_966" data-name="Path 966" d="M2099.77,1452.649h19.755v-1.33H2099.77Z" transform="translate(-1852.911 -1280.697)" fill="#333"/>
      <path id="Path_967" data-name="Path 967" d="M2212.2,1433.26l-.243,2.158h3.876l-2.571-2.142Z" transform="translate(-1951.912 -1264.76)" fill="#333"/>
      <path id="Path_968" data-name="Path 968" d="M2135.833,1433.26l-.243,2.158h3.877l-2.572-2.142Z" transform="translate(-1884.52 -1264.76)" fill="#333"/>
      <g id="Group_3628" data-name="Group 3628" transform="translate(157.98 84.208)">
        <g id="Group_3603" data-name="Group 3603" transform="translate(53.118 64.605)">
          <path id="Path_969" data-name="Path 969" d="M1810.7,1828.02h160.272l15.11,12.976H1795.59Z" transform="translate(-1795.59 -1761.923)" fill="#dce8fa" fill-rule="evenodd"/>
          <g id="Group_3602" data-name="Group 3602" transform="translate(13.799)">
            <path id="Path_970" data-name="Path 970" d="M1914.57,1265.8h162.517v22.376H1914.57Z" transform="translate(-1914.38 -1265.8)" fill="#ffde04" fill-rule="evenodd"/>
            <path id="Path_971" data-name="Path 971" d="M1928.76,1279.99h1.173l-1.173,2.033Zm4.413,0h3.384l-7.8,13.506v-5.86l4.413-7.644Zm6.624,0h3.384l-10.991,19.037h-3.383Zm6.624,0h3.385l-10.991,19.037h-3.384l10.991-19.037Zm6.624,0h3.383l-10.991,19.037h-3.384Zm6.624,0h3.383l-10.991,19.037h-3.384Zm6.624,0h3.383l-10.991,19.037H1955.3Zm6.624,0h3.384l-10.991,19.037h-3.384Zm6.624,0h3.384l-10.991,19.037h-3.384Zm6.624,0h3.384l-10.991,19.037h-3.384Zm6.624,0h3.383l-10.991,19.037h-3.384Zm6.624,0h3.383l-10.991,19.037h-3.384Zm6.624,0h3.383l-10.991,19.037h-3.384Zm6.624,0h3.385l-10.991,19.037h-3.384l10.991-19.037Zm6.624,0h3.384l-10.991,19.037h-3.383Zm6.624,0h3.384l-10.991,19.037h-3.383Zm6.624,0h3.384l-10.991,19.037h-3.384Zm6.624,0h3.384l-10.991,19.037h-3.384Zm6.624,0h3.384l-10.991,19.037h-3.384Zm6.624,0h3.384l-10.991,19.037h-3.384Zm6.624,0h3.384l-10.991,19.037h-3.384Zm6.624,0h3.384l-10.991,19.037h-3.384Zm6.624,0h3.384l-10.991,19.037h-3.384Zm6.624,0h3.384l-10.991,19.037H2067.9Zm6.624,0h2.427v1.659l-10.034,17.38h-3.384l10.991-19.037Zm2.427,7.269v5.861l-3.411,5.907h-3.384Zm0,11.472v.3h-.171Z" transform="translate(-1926.902 -1278.322)" fill-rule="evenodd"/>
            <g id="Group_3601" data-name="Group 3601" transform="translate(0 25.173)">
              <path id="Path_972" data-name="Path 972" d="M1928.955,1479.92h-10.01l-5.985,52.405h10.01Z" transform="translate(-1912.96 -1479.92)" fill="#c63" fill-rule="evenodd"/>
              <path id="Path_973" data-name="Path 973" d="M2032.72,1479.92l-2.034,17.812h4.207Zm-3.95,34.594-.89,7.8h10.011l-.951-7.8h-8.168Z" transform="translate(-2014.37 -1479.92)" fill="#c63" fill-rule="evenodd"/>
              <path id="Path_974" data-name="Path 974" d="M2176.341,1670.239l-1.325-10.009H2045.325L2044,1670.239Z" transform="translate(-2028.594 -1639.032)" fill="#ffde04" fill-rule="evenodd"/>
              <path id="Path_975" data-name="Path 975" d="M2207.963,1681.1v-1.645l-.95,1.645Zm-.337-6.672h-3.384l-3.853,6.672h3.384Zm-6.624,0h-3.385l-3.852,6.672h3.384Zm-6.624,0h-3.385l-3.852,6.672h3.384Zm-6.624,0h-3.384l-3.851,6.672h3.384l3.853-6.672Zm-6.624,0h-3.384l-3.851,6.672h3.384l3.853-6.672Zm-6.624,0h-3.384l-3.852,6.672h3.384Zm-6.624,0H2164.5l-3.853,6.672h3.383l3.852-6.672Zm-6.624,0h-3.383l-3.853,6.672h3.383l3.852-6.672Zm-6.624,0h-3.383l-3.853,6.672h3.384Zm-6.624,0h-3.384l-3.853,6.672h3.385Zm-6.624,0h-3.384l-3.853,6.672h3.384Zm-6.624,0h-3.384l-3.853,6.672h3.384Zm-6.624,0h-3.384l-3.853,6.672h3.384Zm-6.624,0h-3.384l-3.851,6.672h3.383l3.853-6.672Zm-6.624,0h-3.384l-3.851,6.672h3.383l3.853-6.672Zm-6.624,0h-3.384l-3.852,6.672h3.384l3.853-6.672Zm-6.624,0h-3.384l-3.853,6.672h3.384Zm-6.624,0h-3.384l-3.853,6.672h3.383l3.852-6.672Zm-6.624,0h-3.384l-1.789,3.1v3.573h1.322Z" transform="translate(-2063.211 -1651.563)" fill-rule="evenodd"/>
              <path id="Path_976" data-name="Path 976" d="M3162.5,1479.92h10.01l5.983,52.405h-10.01Z" transform="translate(-3015.599 -1479.92)" fill="#c63" fill-rule="evenodd"/>
              <path id="Path_977" data-name="Path 977" d="M3103.66,1479.92l2.034,17.812h-4.207Zm3.95,34.594.891,7.8H3098.49l.951-7.8Z" transform="translate(-2959.115 -1479.92)" fill="#c63" fill-rule="evenodd"/>
            </g>
          </g>
        </g>
        <g id="Group_3612" data-name="Group 3612" transform="translate(117.698)">
          <path id="Path_978" data-name="Path 978" d="M2382.98,1965.37c16.392,0,29.68,3.54,29.68,7.906s-13.288,7.906-29.68,7.906-29.68-3.54-29.68-7.906S2366.589,1965.37,2382.98,1965.37Z" transform="translate(-2352.313 -1818.521)" fill="#dce8fa" fill-rule="evenodd"/>
          <g id="Group_3611" data-name="Group 3611">
            <path id="Path_979" data-name="Path 979" d="M2725.864,1269.03l15.308,18.251-2.779,4.458-15.863-13.36Z" transform="translate(-2678.135 -1204.045)" fill="#333" fill-rule="evenodd"/>
            <path id="Path_980" data-name="Path 980" d="M2420.427,1269.03l-5.307,24.773,5.5.458,4.975-21.954Z" transform="translate(-2406.865 -1204.045)" fill="#333" fill-rule="evenodd"/>
            <path id="Path_981" data-name="Path 981" d="M2460.27,1269.04h34.167l-2.63,41.394h-29.23Z" transform="translate(-2446.707 -1204.054)" fill="#333" fill-rule="evenodd"/>
            <g id="Group_3604" data-name="Group 3604" transform="translate(8.733 105.356)">
              <path id="Path_982" data-name="Path 982" d="M2499.51,1612.43l12.47,1.024-4.743,40.37h-7.728Z" transform="translate(-2490.067 -1612.43)" fill="#333" fill-rule="evenodd"/>
              <path id="Path_983" data-name="Path 983" d="M2428.632,1941.1c-4.7,4.175-18.335,20.939-.591,13.729,4.586-1.864,3.264-5.687,8.472-9.292l.179-4.994-3.455,1.1Z" transform="translate(-2419.19 -1901.966)" fill-rule="evenodd"/>
              <path id="Path_984" data-name="Path 984" d="M2618.05,1612.43l-12.47,1.024,4.742,40.37h7.728Z" transform="translate(-2583.667 -1612.43)" fill="#333" fill-rule="evenodd"/>
              <path id="Path_985" data-name="Path 985" d="M2651.159,1941.1c4.7,4.175,18.335,20.939.591,13.729-4.586-1.864-3.263-5.687-8.472-9.292l-.178-4.994,3.454,1.1,4.6-.542Z" transform="translate(-2616.776 -1901.966)" fill-rule="evenodd"/>
            </g>
            <path id="Path_986" data-name="Path 986" d="M2539.35,1583.91h15.571C2554.921,1595.583,2539.35,1595.583,2539.35,1583.91Z" transform="translate(-2516.49 -1481.907)" fill="#333" fill-rule="evenodd"/>
            <g id="Group_3605" data-name="Group 3605" transform="translate(0 94.9)">
              <path id="Path_987" data-name="Path 987" d="M2368.932,1524.771l4.685,13.518a1.916,1.916,0,0,1-1.179,2.43l-20.3,7.035a1.916,1.916,0,0,1-2.43-1.179l-4.684-13.518a1.916,1.916,0,0,1,1.179-2.43l20.3-7.035a1.916,1.916,0,0,1,2.43,1.179Z" transform="translate(-2344.916 -1523.487)" fill="#ccc" fill-rule="evenodd"/>
              <path id="Path_988" data-name="Path 988" d="M2373.561,1598.372a1.907,1.907,0,0,1-1.133,1.066l-20.3,7.035a1.916,1.916,0,0,1-2.43-1.179l-4.684-13.518a1.91,1.91,0,0,1,.261-1.747,1.9,1.9,0,0,0-.046,1.364l4.684,13.518a1.915,1.915,0,0,0,2.43,1.179l20.3-7.035a1.9,1.9,0,0,0,.917-.682Z" transform="translate(-2344.906 -1582.207)" fill="#fff" fill-rule="evenodd"/>
            </g>
            <path id="Path_989" data-name="Path 989" d="M2833.02,1343.416l15.02-12.756,3.988,5.456-15.662,10.451Z" transform="translate(-2775.635 -1258.43)" fill="#333" fill-rule="evenodd"/>
            <path id="Path_990" data-name="Path 990" d="M2420.657,1499.346l-5.137-20.89,4.344-.176,1.1.631,3.984,18.312Z" transform="translate(-2407.219 -1388.695)" fill="#333" fill-rule="evenodd"/>
            <path id="Path_991" data-name="Path 991" d="M2459.22,1641.533l1.266,4.182-.865,1.729,3.6.145,2.739-2.594v-5.047l-2.449-.537Z" transform="translate(-2445.781 -1530.882)" fill="#ffc5a6" fill-rule="evenodd"/>
            <path id="Path_992" data-name="Path 992" d="M2938.9,1263.191l-1.6-6.842,2.614-.234,1.315,3.527,7-6.612c3.171,3.572,3.2,3.063,3.582,7.867l-8.165,7.064C2939.919,1266.623,2940.734,1266.753,2938.9,1263.191Z" transform="translate(-2867.656 -1189.926)" fill="#ebcab0" fill-rule="evenodd"/>
            <path id="Path_993" data-name="Path 993" d="M3006.235,1264.83c.158.175.3.337.438.491l-5.053,4.166Zm1.179,1.407a5.009,5.009,0,0,1,.368.595l-5.018,4.1,4.65-4.693Zm.886,2.365c.036.24.068.5.1.792l-4.941,3.379,4.841-4.17Z" transform="translate(-2924.414 -1200.339)" fill="#deb697" fill-rule="evenodd"/>
            <g id="Group_3609" data-name="Group 3609" transform="translate(20.244 60.162)">
              <g id="Group_3607" data-name="Group 3607" transform="translate(0 4.822)">
                <g id="Group_3606" data-name="Group 3606">
                  <path id="Path_994" data-name="Path 994" d="M2610.735,1269.031h5.247l-10.4,19.242Z" transform="translate(-2595.178 -1269.03)" fill="#666" fill-rule="evenodd"/>
                  <path id="Path_995" data-name="Path 995" d="M2522.346,1269.04H2517.1l10.4,19.24Z" transform="translate(-2517.1 -1269.039)" fill="#666" fill-rule="evenodd"/>
                </g>
                <path id="Path_996" data-name="Path 996" d="M2561.72,1269.04l5.156,19.24,5.155-19.24Z" transform="translate(-2556.474 -1269.039)" fill="#e6e6e6" fill-rule="evenodd"/>
                <path id="Path_997" data-name="Path 997" d="M2586.973,1271.8h2.889l.923-2.761h-4.894Z" transform="translate(-2577.803 -1269.039)" fill="#07827c" fill-rule="evenodd"/>
                <path id="Path_998" data-name="Path 998" d="M2592.047,1292.53h2.888l.281,9.25-1.937,7.229-1.639-6.118Z" transform="translate(-2582.877 -1289.767)" fill="#07827c" fill-rule="evenodd"/>
              </g>
              <g id="Group_3608" data-name="Group 3608" transform="translate(4.373)">
                <path id="Path_999" data-name="Path 999" d="M2554.3,1251.091l1.311-2.391,4.85,2.544-2.16,4.363Z" transform="translate(-2554.3 -1246.268)" fill="#e6e6e6" fill-rule="evenodd"/>
                <path id="Path_1000" data-name="Path 1000" d="M2612.861,1251.091l-1.311-2.391-4.851,2.544,2.159,4.363Z" transform="translate(-2600.54 -1246.268)" fill="#e6e6e6" fill-rule="evenodd"/>
                <path id="Path_1001" data-name="Path 1001" d="M2565.45,1230.442v-2.432l9.7.081v2.351l-4.851,2.544Z" transform="translate(-2564.139 -1228.01)" fill="#ebcab0" fill-rule="evenodd"/>
              </g>
            </g>
            <g id="Group_3610" data-name="Group 3610" transform="translate(0.775)">
              <path id="Path_1002" data-name="Path 1002" d="M2766.863,1038.15c5.71,1.124,1.659,9.378-2.633,9.218l-.919-5.212Z" transform="translate(-2714.896 -1000.309)" fill="#cca98e" fill-rule="evenodd"/>
              <path id="Path_1003" data-name="Path 1003" d="M2369.588,1070.38c-5.71,1.124-1.659,9.378,2.634,9.218l.919-5.212Z" transform="translate(-2364.975 -1028.749)" fill="#cca98e" fill-rule="evenodd"/>
              <path id="Path_1004" data-name="Path 1004" d="M2387.644,873.971l37.676-3.192a3.418,3.418,0,0,1,3.856,2.858l1.831,21.6c-1.345,7.01,2.206,17.8-17.267,20.08-16.735,1.952-24.569-.567-27.684-17.445l-.1.051c-.856-6.189-1.024-13.315-1.63-20.481a3.417,3.417,0,0,1,3.32-3.466Z" transform="translate(-2380.457 -852.601)" fill="#ebcab0" fill-rule="evenodd"/>
              <path id="Path_1005" data-name="Path 1005" d="M2357.095,761.536c-3.262-8.158-8.914-23.272-3.049-30.641.923-5.023,40.051-21.79,37.9-11.163l5.8,2.08,4.183,3.76c4.257,6.972,3.334,25.419.114,33.329l-2.813-17.2-.561,5.107c-10.609-6.011-28.911-7.813-40.889-5.931l-.689,20.657Z" transform="translate(-2351.497 -716.271)" fill-rule="evenodd"/>
              <path id="Path_1006" data-name="Path 1006" d="M2608.35,929.615l14.026-.685.291,5.935-14.028.685Z" transform="translate(-2578.153 -903.929)" fill-rule="evenodd"/>
              <path id="Path_1007" data-name="Path 1007" d="M2436.142,940.49l-13.942,1.683.713,5.9,13.942-1.683Z" transform="translate(-2413.888 -914.13)" fill-rule="evenodd"/>
              <path id="Path_1008" data-name="Path 1008" d="M2524.41,1130.708l16.39-1.388C2541.847,1141.684,2525.458,1143.073,2524.41,1130.708Z" transform="translate(-2504.081 -1080.76)" fill="#700a0a" fill-rule="evenodd"/>
              <path id="Path_1009" data-name="Path 1009" d="M2524.41,1130.708l16.39-1.388a12.5,12.5,0,0,1,.011,2.031l-16.069,1.361a12.525,12.525,0,0,1-.33-2Z" transform="translate(-2504.081 -1080.76)" fill="#fff" fill-rule="evenodd"/>
              <path id="Path_1010" data-name="Path 1010" d="M2549.79,1163.488a8.007,8.007,0,0,1-14.62,1.239A23.873,23.873,0,0,1,2549.79,1163.488Z" transform="translate(-2513.577 -1110.364)" fill="#ffa6a6" fill-rule="evenodd"/>
            </g>
            <path id="Path_1011" data-name="Path 1011" d="M2551.823,1635.96a1.013,1.013,0,1,1-1.013,1.013A1.013,1.013,0,0,1,2551.823,1635.96Z" transform="translate(-2526.603 -1527.838)" fill="#333" fill-rule="evenodd"/>
          </g>
        </g>
        <g id="Group_3627" data-name="Group 3627" transform="translate(0 83.861)">
          <g id="Group_3619" data-name="Group 3619" transform="translate(231.218)">
            <g id="Group_3615" data-name="Group 3615">
              <path id="Path_1012" data-name="Path 1012" d="M3329.471,1766.14c10.471,0,18.961,1.452,18.961,3.242s-8.488,3.242-18.961,3.242-18.961-1.452-18.961-3.242S3319,1766.14,3329.471,1766.14Z" transform="translate(-3310.51 -1726.574)" fill="#dce8fa" fill-rule="evenodd"/>
              <g id="Group_3614" data-name="Group 3614" transform="translate(2.666)">
                <g id="Group_3613" data-name="Group 3613">
                  <path id="Path_1013" data-name="Path 1013" d="M3333.19,1766.14h32.59v2.708h-32.59Z" transform="translate(-3333.19 -1726.574)" fill="#ff6804" fill-rule="evenodd"/>
                  <path id="Path_1014" data-name="Path 1014" d="M3370.523,1429.59h5.788l3.094,11.609h-11.978l3.094-11.609Zm12.906,26.707,3.094,11.609H3360.31l3.094-11.609Z" transform="translate(-3357.122 -1429.59)" fill="#ff6804" fill-rule="evenodd"/>
                </g>
                <path id="Path_1015" data-name="Path 1015" d="M3405.75,1540.04l1.873,7.028h-16.457l1.874-7.028Zm2.514,9.431.777,2.916H3389.75l.777-2.916Z" transform="translate(-3383.101 -1527.055)" fill="#ccc" fill-rule="evenodd"/>
              </g>
            </g>
            <g id="Group_3618" data-name="Group 3618" transform="translate(36.105)">
              <path id="Path_1016" data-name="Path 1016" d="M3632.323,1690.57c8.12,0,14.7,1.126,14.7,2.515s-6.583,2.515-14.7,2.515-14.7-1.126-14.7-2.515S3624.2,1690.57,3632.323,1690.57Z" transform="translate(-3617.62 -1659.888)" fill="#dce8fa" fill-rule="evenodd"/>
              <g id="Group_3617" data-name="Group 3617" transform="translate(2.067)">
                <g id="Group_3616" data-name="Group 3616">
                  <path id="Path_1017" data-name="Path 1017" d="M3635.2,1690.57h25.273v2.1H3635.2Z" transform="translate(-3635.2 -1659.888)" fill="#ff6804" fill-rule="evenodd"/>
                  <path id="Path_1018" data-name="Path 1018" d="M3664.14,1429.59h4.489l2.4,9h-9.288Zm10.008,20.711,2.4,9H3656.22l2.4-9Z" transform="translate(-3653.749 -1429.59)" fill="#ff6804" fill-rule="evenodd"/>
                </g>
                <path id="Path_1019" data-name="Path 1019" d="M3691.459,1515.24l1.452,5.45h-12.762l1.452-5.45h9.857Zm1.949,7.313.6,2.261h-14.96l.6-2.261Z" transform="translate(-3673.895 -1505.171)" fill="#ccc" fill-rule="evenodd"/>
              </g>
            </g>
          </g>
          <g id="Group_3626" data-name="Group 3626">
            <g id="Group_3622" data-name="Group 3622" transform="translate(27.589)">
              <path id="Path_1020" data-name="Path 1020" d="M1597.4,1766.14c-10.471,0-18.961,1.452-18.961,3.242s8.489,3.242,18.961,3.242,18.961-1.452,18.961-3.242S1607.873,1766.14,1597.4,1766.14Z" transform="translate(-1578.44 -1726.574)" fill="#dce8fa" fill-rule="evenodd"/>
              <g id="Group_3621" data-name="Group 3621" transform="translate(2.666)">
                <g id="Group_3620" data-name="Group 3620">
                  <path id="Path_1021" data-name="Path 1021" d="M1633.71,1766.14h-32.59v2.708h32.59Z" transform="translate(-1601.12 -1726.574)" fill="#ff6804" fill-rule="evenodd"/>
                  <path id="Path_1022" data-name="Path 1022" d="M1644.24,1429.59h-5.788l-3.094,11.609h11.977l-3.094-11.609Zm-12.906,26.707-3.094,11.609h26.213l-3.094-11.609Z" transform="translate(-1625.052 -1429.59)" fill="#ff6804" fill-rule="evenodd"/>
                </g>
                <path id="Path_1023" data-name="Path 1023" d="M1660.971,1540.04l-1.873,7.028h16.457l-1.874-7.028Zm-2.514,9.431-.777,2.916h19.291l-.777-2.916Z" transform="translate(-1651.031 -1527.055)" fill="#ccc" fill-rule="evenodd"/>
              </g>
            </g>
            <g id="Group_3625" data-name="Group 3625">
              <path id="Path_1024" data-name="Path 1024" d="M1358.473,1690.57c-8.12,0-14.7,1.126-14.7,2.515s6.583,2.515,14.7,2.515,14.7-1.126,14.7-2.515-6.583-2.515-14.7-2.515Z" transform="translate(-1343.77 -1659.888)" fill="#dce8fa" fill-rule="evenodd"/>
              <g id="Group_3624" data-name="Group 3624" transform="translate(2.067)">
                <g id="Group_3623" data-name="Group 3623">
                  <path id="Path_1025" data-name="Path 1025" d="M1386.623,1690.57H1361.35v2.1h25.273Z" transform="translate(-1361.35 -1659.888)" fill="#ff6804" fill-rule="evenodd"/>
                  <path id="Path_1026" data-name="Path 1026" d="M1394.8,1429.59h-4.489l-2.4,9h9.288ZM1384.79,1450.3l-2.4,9h20.328l-2.4-9Z" transform="translate(-1379.917 -1429.59)" fill="#ff6804" fill-rule="evenodd"/>
                </g>
                <path id="Path_1027" data-name="Path 1027" d="M1407.771,1515.24l-1.453,5.45h12.762l-1.452-5.45Zm-1.949,7.313-.6,2.261h14.96l-.6-2.261Z" transform="translate(-1400.063 -1505.171)" fill="#ccc" fill-rule="evenodd"/>
              </g>
            </g>
          </g>
        </g>
      </g>
      <g id="Group_3630" data-name="Group 3630" transform="translate(313.037 160)">
        <path id="Path_1028" data-name="Path 1028" d="M2665.064,1361.052l1.365.788a.674.674,0,0,1,.34.59v.663l.737.426a.791.791,0,0,1,.4.691v2.1a.792.792,0,0,1-.4.69l-1.815,1.049a.792.792,0,0,1-.8,0l-1.815-1.049a.79.79,0,0,1-.4-.69v-3.876a.676.676,0,0,1,.341-.59l1.365-.788a.677.677,0,0,1,.68,0Z" transform="translate(-2662.68 -1360.96)" fill="#fefefe" fill-rule="evenodd"/>
        <path id="Path_1029" data-name="Path 1029" d="M2667.361,1363.789l1.365.788a.348.348,0,0,1,.176.3v1.574a.345.345,0,0,1-.176.3l-.531.307a1.015,1.015,0,1,1-2.02,0l-.5-.287a.5.5,0,0,1-.082-.054.348.348,0,0,1-.126-.27v-1.575a.346.346,0,0,1,.176-.3l1.365-.788a.345.345,0,0,1,.352,0Z" transform="translate(-2665.142 -1363.413)" fill="#07827c" fill-rule="evenodd"/>
        <path id="Path_1030" data-name="Path 1030" d="M2667.766,1374.852c.11-.016.1-.007.22-.132l.228-.247c.073-.079.125-.124.115-.2a.18.18,0,1,1,.357-.051c.014.1.018.089.126.171l.3.228c.112.083.069.072.176.057s.078.026.175-.076l.627-.664c.066-.069.1-.083.089-.16a.181.181,0,1,1,.2.153.262.262,0,0,0-.2.1l-.638.675c-.056.061-.066.058-.056.126a.18.18,0,1,1-.357.051c-.014-.1,0-.073-.1-.153l-.322-.243c-.109-.081-.1-.072-.18-.06-.125.019-.1,0-.22.134l-.214.238c-.073.079-.138.141-.129.2a.18.18,0,1,1-.356.049.174.174,0,0,1,.153-.2Z" transform="translate(-2667.032 -1372.093)" fill="#fefefe" fill-rule="evenodd"/>
        <path id="Path_1031" data-name="Path 1031" d="M2669.2,1382.33l.572.33a.463.463,0,0,1,.234.407v1.865a7.1,7.1,0,0,0-2.185-.353c-.1,0-.211,0-.32,0l0-.013h0a1.172,1.172,0,0,1,.5-.61l.015-.011h0l.033-.022h0l.016-.011h0l.016-.01h0l.016-.01h0l.018-.011h0l.018-.011h0l.018-.011h0l.017-.01h0l.018-.011h0l.018-.011h0l.019-.01h0l.019-.011h0l.02-.011h0l.019-.01h0l.02-.011h0l.02-.012.53-.307a.674.674,0,0,0,.34-.59v-.531Zm-3.762,2.6v-1.486l.012.007.018.011h.015l.5.287.02.012h0l.02.011h0l.02.011h0l.019.01h0l.019.01h0l.019.011h0l.018.01h0l.018.011h0l.018.011h0l.018.01h0l.018.01h0l.017.011h0l.017.01h0l.016.011h0l.016.01h0l.015.011h0l.015.01h0a1.19,1.19,0,0,1,.5.6h0l.007.021h0l.007.021.007.022.006.018-.134.015a6.515,6.515,0,0,0-1.251.287Z" transform="translate(-2665.115 -1379.818)" fill="#414042" fill-rule="evenodd"/>
        <g id="Group_3629" data-name="Group 3629" transform="translate(0.456 3.213)">
          <path id="Path_1032" data-name="Path 1032" d="M2697.983,1397.218a.274.274,0,0,0-.224-.224.224.224,0,0,1,.448,0A.274.274,0,0,0,2697.983,1397.218Z" transform="translate(-2694.092 -1395.773)" fill="#fff" fill-rule="evenodd"/>
          <path id="Path_1033" data-name="Path 1033" d="M2698.774,1388.637a.213.213,0,0,0-.174-.174.173.173,0,0,1,.347,0A.21.21,0,0,0,2698.774,1388.637Z" transform="translate(-2694.833 -1388.29)" fill="#fff" fill-rule="evenodd"/>
          <path id="Path_1034" data-name="Path 1034" d="M2694.616,1393.2a.226.226,0,0,0-.186-.186.229.229,0,0,0,.186-.186.186.186,0,0,1,0,.372Z" transform="translate(-2691.153 -1392.296)" fill="#fff" fill-rule="evenodd"/>
          <path id="Path_1035" data-name="Path 1035" d="M2688.875,1396.048a.271.271,0,0,0-.224-.223.224.224,0,1,1,.448,0A.273.273,0,0,0,2688.875,1396.048Z" transform="translate(-2686.053 -1394.741)" fill="#fff" fill-rule="evenodd"/>
          <path id="Path_1036" data-name="Path 1036" d="M2666.766,1395.493a.206.206,0,0,1,0-.413.206.206,0,0,1,0,.413Z" transform="translate(-2666.56 -1394.282)" fill="#fff" fill-rule="evenodd"/>
          <path id="Path_1037" data-name="Path 1037" d="M2669.77,1398.821a.221.221,0,0,0-.18-.181.18.18,0,0,1,.361,0A.222.222,0,0,0,2669.77,1398.821Z" transform="translate(-2669.234 -1397.264)" fill="#fff" fill-rule="evenodd"/>
        </g>
        <path id="Path_1038" data-name="Path 1038" d="M2670.251,1403.648a.455.455,0,0,1-.113.166c-.284-.018-.436-.259-.683-.27-.177-.008-.157-.163-.12-.3A2.7,2.7,0,0,1,2670.251,1403.648Zm-.26.265-.172.1c-.5-.486-.316.107-.587.015-.181-.061-.071-.128-.161-.322a.439.439,0,0,1-.042-.1c.015-.136.075-.309.015-.434.06.012.12.023.177.038-.086.32.075.39.248.453s.225.138.36.194a1.143,1.143,0,0,0,.162.053Zm-.281.162-.467.269a3.11,3.11,0,0,0-.809-.32.391.391,0,0,0-.429.414c0,.285.243.349.431.373l-.2.118a.466.466,0,0,1-.469,0l-.551-.317a2.023,2.023,0,0,1,.25.067c.578.139.286-.294.407-.458.045-.061-.007-.127-.054-.167-.388-.328-.663-.112-.888-.517-.094-.17-.124-.159-.271-.227a.465.465,0,0,1-.069-.046c.133-.038.274-.069.421-.1.122.188.514.281.581.5.209.672.646.22.886.175.427-.081.023-.613.107-.732.083.008.166.019.246.031.069.1.212.2.094.4-.074.13.079.177.07.4a.276.276,0,0,0,.527.035c.029-.072.135.051.187.1Zm-2.738.394-.286-.165a1.737,1.737,0,0,1,.352,0c.071.015.753.069.632-.113-.163-.246-.555-.034-.895-.337-.148-.133-.609-.448-.747-.159-.025.053-.059.126-.08.183a.463.463,0,0,1-.2-.23,2.394,2.394,0,0,1,.682-.337c.2.115.3.122.39.282.225.406.431.272.788.468.189.1.153.085.128.17-.076.262.12.414-.244.327a1.109,1.109,0,0,0-.521-.088Zm-.469-.271-.446-.257a1.8,1.8,0,0,1,.081-.193c.079-.163.479.128.555.2a1.165,1.165,0,0,0,.729.24h-.362Zm2.622.215-.1.055h0c-.495-.359-.877-.132-.658-.025.2.1.283.087.385.183l-.143.082c-.19-.071-.482-.047-.482-.273a.264.264,0,0,1,.144-.26c.226-.106.6.076.852.235Zm-.213.124-.051.029a.755.755,0,0,0-.334-.159c-.175-.028.1-.1.222-.028a.586.586,0,0,1,.163.158Zm-1.754-1.4.039-.006h0v0l0,0h0l0,0,0,0h0l0,0,0,0h0l0,0,0,0h0l.006,0h0l0,0h0l0,0h0l.006,0,.006,0h0l0,0h0l.006,0,0,0h0l.006,0h0l0,0,.006,0h.006l0,0h.008l.006,0h.227l0,0h0l0,0h0l0,0h0l0,0h.006l0,0h0l0,0h0l0,0h.01l0,0h0l0,0h0l0,0h0l0,0h0l0,0h0l0,0h0v0l0,0h0l0,0h0l0,0h0l0,0,0,0h0l0,0h0l0,0h0l0,0h0l0,0h0l0,0h0l0,0,0,0h0l0,0h0l0,0h0l0,0,0,0h0l0,0c.125.119.085.2.192.291.36.316.368-.08.368-.318.07,0,.139.007.207.012-.051.21.241.58,0,.624-.259.048-.59.437-.748-.089-.077-.254-.387-.336-.553-.49Zm.67-.059.172,0c.042,0,.085,0,.126,0-.006.259.038.407-.165.229-.053-.047-.062-.136-.133-.228Z" transform="translate(-2665.389 -1398.128)" fill="#06bfeb" fill-rule="evenodd"/>
      </g>
      <path id="Path_1039" data-name="Path 1039" d="M2497.309,1009.886l1.1-.121a1.669,1.669,0,0,1,1.812,1.317l-1.288,1.23,1.421-.1.516,4.688a1.67,1.67,0,0,1-1.473,1.838l-1.1.121a1.671,1.671,0,0,1-1.837-1.473l-.623-5.668a1.67,1.67,0,0,1,1.473-1.838Zm-21.34,2.348,1.1-.121a1.671,1.671,0,0,1,1.8,1.269l-1.426,1.361,1.578-.106.508,4.617a1.67,1.67,0,0,1-1.473,1.838l-1.1.121a1.669,1.669,0,0,1-1.836-1.473l-.624-5.668A1.671,1.671,0,0,1,2475.968,1012.234Z" transform="translate(-2183.573 -891.044)" fill-rule="evenodd"/>
    </g>
  </g>
</svg>
