<svg id="Logo" xmlns="http://www.w3.org/2000/svg" width="197.758" height="56.327" viewBox="0 0 197.758 56.327">
  <g id="Group_1" data-name="Group 1">
    <path id="Path_1" data-name="Path 1" d="M607.721,0h8.7V32.076h17.357V39.7H607.721Z" transform="translate(-607.721 0.601)" fill="#007e75" fill-rule="evenodd"/>
    <path id="Path_2" data-name="Path 2" d="M635.478,0h8.706V17.548l.109.054L658.145,0h10.348l-15,18.423L669.753,39.7H659.022L644.293,19.85l-.109.054V39.7h-8.706Z" transform="translate(-560.524 0.601)" fill="#007e75" fill-rule="evenodd"/>
    <path id="Path_3" data-name="Path 3" d="M664.4,24.51h10.677l-1.643-4.44c-1.149-3.125-2.573-7.075-3.614-10.092h-.108c-1.041,3.017-2.465,6.967-3.724,10.311L664.4,24.51ZM665.656,0h8.433l16.1,39.7h-9.31L677.7,31.364H661.714L658.483,39.7h-8.924Z" transform="translate(-536.574 0.601)" fill="#007e75" fill-rule="evenodd"/>
    <path id="Path_4" data-name="Path 4" d="M667.255,29.109a25.155,25.155,0,0,0,12.427,3.948c3.177,0,5.531-1.261,5.531-4.221,0-3.675-3.724-4-8.816-5.649-5.475-1.807-10.4-4.494-10.4-11.4,0-7.4,5.583-12.009,13.905-12.009A27.232,27.232,0,0,1,692,2.629v8.606A25.15,25.15,0,0,0,679.847,7.4c-2.955,0-5.092,1.1-5.092,3.727,0,3.511,3.668,3.783,8.433,5.377,5.969,1.971,10.785,4.769,10.785,11.787,0,7.729-5.858,12.39-14.4,12.39a29.257,29.257,0,0,1-12.319-2.8Z" transform="translate(-508.623 0.223)" fill="#007e75" fill-rule="evenodd"/>
    <rect id="Rectangle_1" data-name="Rectangle 1" width="8.706" height="39.698" transform="translate(189.051 0.601)" fill="#007e75"/>
  </g>
  <path id="Path_5" data-name="Path 5" d="M646.235,20.22a6.782,6.782,0,1,1-6.782-6.789,6.786,6.786,0,0,1,6.782,6.789ZM639.453,7.67c-6.845,0-11.99,5.534-11.99,12.55s5.146,12.552,11.99,12.552,11.99-5.537,11.99-12.552S646.3,7.67,639.453,7.67Zm20.7,12.55c0-11.564-8.927-20.443-20.7-20.443s-20.7,8.879-20.7,20.443a20.513,20.513,0,0,0,3.649,11.84H622.4L639.453,56.1,656.507,32.06H656.5A20.515,20.515,0,0,0,660.151,20.22Z" transform="translate(-588.953 0.223)" fill="#575757" fill-rule="evenodd"/>
  <path id="Path_6" data-name="Path 6" d="M636.319,23.956h-.841v-7.2h.841v7.2Zm121.846,0h-3.816v-7.2H758v.763H755.19v2.395h2.6v.758h-2.6v2.522h2.975v.763Zm-10.658-.3a4.23,4.23,0,0,1-1.99.423,3.206,3.206,0,0,1-2.457-.99,3.651,3.651,0,0,1-.928-2.6,3.824,3.824,0,0,1,1.041-2.791,3.522,3.522,0,0,1,2.638-1.065,4.24,4.24,0,0,1,1.7.3v.9A3.461,3.461,0,0,0,745.8,17.4a2.632,2.632,0,0,0-2.012.828,3.13,3.13,0,0,0-.772,2.214,2.973,2.973,0,0,0,.72,2.1,2.458,2.458,0,0,0,1.893.779,3.553,3.553,0,0,0,1.877-.48v.817Zm-12.163.3h-1.036L730.6,18.214a2.452,2.452,0,0,1-.232-.45h-.027a8.072,8.072,0,0,1,.038.99v5.2h-.841v-7.2h1.095l3.6,5.65c.151.232.248.394.294.48h.019a7.318,7.318,0,0,1-.051-1.057V16.755h.844v7.2Zm-12.565,0h-3.816v-7.2h3.657v.763h-2.816v2.395h2.6v.758h-2.6v2.522h2.975v.763Zm-10.863-.491a4.827,4.827,0,0,1-2.411.612,3.288,3.288,0,0,1-2.492-1,3.639,3.639,0,0,1-.952-2.632A3.74,3.74,0,0,1,707.12,17.7a3.6,3.6,0,0,1,2.678-1.071,4.568,4.568,0,0,1,1.974.38v.936A3.781,3.781,0,0,0,709.7,17.4a2.592,2.592,0,0,0-1.985.833,3.05,3.05,0,0,0-.771,2.16,3.059,3.059,0,0,0,.717,2.147,2.514,2.514,0,0,0,1.95.779,3,3,0,0,0,1.459-.334v-2.02h-1.578V20.2h2.422v3.266Zm-12.651.491h-.844v-7.2h.844v7.2Zm-7.322,0h-3.735v-7.2h.841v6.437h2.894v.763Zm-10.216,0h-3.735v-7.2h.845v6.437h2.891v.763Zm-10.5,0h-3.816v-7.2h3.657v.763H668.26v2.395h2.6v.758h-2.6v2.522h2.972v.763Zm-10.321-6.437h-2.079v6.437h-.841V17.519h-2.074v-.763h4.995v.763Zm-11.518,6.437h-1.035l-3.706-5.742a2.448,2.448,0,0,1-.232-.45h-.03a7.347,7.347,0,0,1,.041.99v5.2h-.844v-7.2h1.1l3.606,5.65c.151.232.248.394.291.48h.022a7.323,7.323,0,0,1-.051-1.057V16.755h.844Z" transform="translate(-560.407 28.881)" fill="#007e75" fill-rule="evenodd"/>
</svg>
